<?xml version="1.0" encoding="UTF-8" standalone="no"?>
<!DOCTYPE svg PUBLIC "-//W3C//DTD SVG 1.1//EN" "http://www.w3.org/Graphics/SVG/1.1/DTD/svg11.dtd">
<svg width="100%" height="100%" viewBox="0 0 1000 1000" version="1.1" xmlns="http://www.w3.org/2000/svg" xmlns:xlink="http://www.w3.org/1999/xlink" xml:space="preserve" xmlns:serif="http://www.serif.com/" style="fill-rule:evenodd;clip-rule:evenodd;stroke-linejoin:round;stroke-miterlimit:2;">
    <path d="M1000,0L0,0L0,1000L1000,1000L1000,0ZM973.2,651.834L973.2,26.8L26.8,26.8L26.8,973.2L281.904,973.2C287.687,962.008 294.063,950.722 301.07,939.402C301.07,939.402 334.049,888.951 342.785,897.687C342.785,897.687 334.261,925.295 324.95,973.2L973.2,973.2L973.2,952.592C969.636,914.414 956.277,879.382 923.183,850.176C907.449,836.294 889.951,816.707 886.832,797.514C872.356,708.502 815.231,643.723 766.081,574.629C746.206,546.691 719.561,523.584 689.055,490.841C685.333,579.609 631.449,628.016 570.916,657.465C536.024,674.448 483.86,655.858 439.463,653.28C436.039,647.2 432.623,641.111 429.207,635.039C466.764,564.644 501.411,492.492 542.716,424.376C579.748,363.328 572.978,293.194 514.9,251.872C467.253,217.959 417.002,187.705 365.416,154.211C386.007,122.01 418.959,123.748 451.458,128.894C471.341,132.039 490.159,143.649 509.946,145.23C540.654,147.685 574.699,152.813 602.182,142.749C682.8,113.212 756.008,130.754 812.627,184.787C846.192,216.805 867.359,270.463 876.174,317.734C888.448,383.605 901.745,446.382 928.722,509.056C948.342,554.62 960.488,603.301 973.2,651.834ZM715.385,432.326C803.516,399.286 794.605,362.437 788.428,298.532C785.834,271.721 783.973,244.84 781.771,217.985C785.58,217.382 789.389,216.77 793.198,216.159C804.389,255.157 814.741,294.435 827.549,332.891C829.969,340.16 842.208,344.161 853.408,352.181C835.691,404.414 801.244,427.914 715.385,432.326Z"/>
</svg>
